<svg xmlns="http://www.w3.org/2000/svg" width="40" height="40" viewBox="0 0 40 40">
  <defs>
    <linearGradient id="coral" x1="30.77" y1="9.23" x2="9.23" y2="30.77" gradientUnits="userSpaceOnUse">
      <stop offset="0%"   stop-color="#FFC09A"/>
      <stop offset="100%" stop-color="#E08660"/>
    </linearGradient>

    <linearGradient id="cogFace" x1="5" y1="5" x2="35" y2="35" gradientUnits="userSpaceOnUse">
      <stop offset="0%"   stop-color="#087CFA"/>
      <stop offset="50%"  stop-color="#FE315D"/>
      <stop offset="100%" stop-color="#7A0E2E"/>
    </linearGradient>

    <path id="cog" d="M 18.33,8.12 L 17.91,5.15 L 22.09,5.15 L 21.67,8.12 L 24.50,8.87 L 25.62,6.09 L 29.23,8.18 L 27.39,10.54 L 29.46,12.61 L 31.82,10.77 L 33.91,14.38 L 31.13,15.50 L 31.88,18.33 L 34.85,17.91 L 34.85,22.09 L 31.88,21.67 L 31.13,24.50 L 33.91,25.62 L 31.82,29.23 L 29.46,27.39 L 27.39,29.46 L 29.23,31.82 L 25.62,33.91 L 24.50,31.13 L 21.67,31.88 L 22.09,34.85 L 17.91,34.85 L 18.33,31.88 L 15.50,31.13 L 14.38,33.91 L 10.77,31.82 L 12.61,29.46 L 10.54,27.39 L 8.18,29.23 L 6.09,25.62 L 8.87,24.50 L 8.12,21.67 L 5.15,22.09 L 5.15,17.91 L 8.12,18.33 L 8.87,15.50 L 6.09,14.38 L 8.18,10.77 L 10.54,12.61 L 12.61,10.54 L 10.77,8.18 L 14.38,6.09 L 15.50,8.87 Z"/>
  </defs>

  <!-- Cream plate for strong silhouette on dark IDE themes -->
  <rect x="2" y="2" width="36" height="36" rx="7" fill="#F2E8D2"/>

  <g transform="translate(20 20) scale(1 0.88) translate(-20 -20)">
    <use href="#cog" fill="#08101F" transform="translate(1.5, 2.5)"/>
    <use href="#cog" fill="#1A2538" transform="translate(0.7, 1.3)"/>
    <use href="#cog" fill="url(#cogFace)"/>
    <use href="#cog" fill="none" stroke="#1A2538" stroke-width="0.4" stroke-linejoin="round"/>

    <circle cx="20" cy="20" r="3.4" fill="#08101F"/>
    <circle cx="20.4" cy="20.5" r="2.4" fill="#1A2538"/>
  </g>

  <g transform="scale(3.0769)" stroke="#0B0E18" stroke-width="1.95" stroke-linecap="round" fill="none">
    <line x1="3.2" y1="10.7" x2="7"    y2="2.6"/>
    <line x1="5.4" y1="11"   x2="9.2"  y2="2.9"/>
    <line x1="7.6" y1="10.7" x2="10.6" y2="3.2"/>
  </g>

  <g transform="scale(3.0769)" stroke="url(#coral)" stroke-width="1.6" stroke-linecap="round" fill="none">
    <line x1="3.2" y1="10.7" x2="7"    y2="2.6"/>
    <line x1="5.4" y1="11"   x2="9.2"  y2="2.9"/>
    <line x1="7.6" y1="10.7" x2="10.6" y2="3.2"/>
  </g>
</svg>
